<?xml version="1.0" encoding="iso-8859-1"?>
<!-- Uploaded to: SVG Repo, www.svgrepo.com, Generator: SVG Repo Mixer Tools -->
<svg fill="#000000" height="800px" width="800px" version="1.1" id="Capa_1" xmlns="http://www.w3.org/2000/svg" xmlns:xlink="http://www.w3.org/1999/xlink" 
	 viewBox="0 0 489.9 489.9" xml:space="preserve">
<g>
	<g>
		<g>
			<path d="M37.9,413.25h36.3h341.5H452c21,0,37.9-17,37.9-37.9v-23.3h-30.6h-1.7v-241c0-19-15.4-34.4-34.4-34.4H66.6
				c-19,0-34.4,15.4-34.4,34.4v241h-1.6H0v23.3C0,396.25,17,413.25,37.9,413.25z M79.1,123.55h331.8v228.5h-120v2.3
				c0,7.2-5.8,13-13,13H212c-7.2,0-13-5.8-13-13v-2.3H79.1V123.55z M117.1,271.35v-17.6c0-2.4,2-4.4,4.4-4.4h119
				c2.4,0,4.4,2,4.4,4.4v17.6c0,2.4-2,4.4-4.4,4.4h-119C119.1,275.75,117.1,273.85,117.1,271.35z M304.9,325.45H121.5
				c-2.4,0-4.4-2-4.4-4.4v-17.6c0-2.4,2-4.4,4.4-4.4h183.4c2.4,0,4.4,2,4.4,4.4v17.5C309.3,323.45,307.4,325.45,304.9,325.45z
				 M117.1,221.75v-17.6c0-2.4,2-4.4,4.4-4.4h246.9c2.4,0,4.4,2,4.4,4.4v17.6c0,2.4-2,4.4-4.4,4.4H121.5
				C119.1,226.15,117.1,224.15,117.1,221.75z M117.1,172.05v-17.6c0-2.4,2-4.4,4.4-4.4h212.3c2.4,0,4.4,2,4.4,4.4v17.6
				c0,2.4-2,4.4-4.4,4.4H121.5C119.1,176.45,117.1,174.55,117.1,172.05z"/>
		</g>
	</g>
</g>
</svg>